<svg width="286" height="262" viewBox="0 0 286 262" fill="none" xmlns="http://www.w3.org/2000/svg">
<g id="Group">
<path id="Vector 1" d="M53.5271 55.5699H221.527L139.527 201.57L53.5271 55.5699Z" stroke="#151F3A" stroke-opacity="0.78" stroke-width="10"/>
<g id="paper">
<path id="Vector" d="M53.5271 112.815C82.9026 112.815 106.716 88.2734 106.716 57.9999C106.716 27.7264 82.9026 3.18494 53.5271 3.18494C24.1517 3.18494 0.338135 27.7264 0.338135 57.9999C0.338135 88.2734 24.1517 112.815 53.5271 112.815Z" fill="#2F48BF" fill-opacity="0.89"/>
<path id="Vector_2" d="M53.5271 107.955C82.9026 107.955 106.716 84.5014 106.716 55.5699C106.716 26.6385 82.9026 3.18494 53.5271 3.18494C24.1517 3.18494 0.338135 26.6385 0.338135 55.5699C0.338135 84.5014 24.1517 107.955 53.5271 107.955Z" fill="url(#paint0_linear_4_147)"/>
<g id="Vector_3" filter="url(#filter0_i_4_147)">
<path d="M53.5271 97.6939C76.078 97.6939 94.3591 79.3179 94.3591 56.6499C94.3591 33.982 76.078 15.6059 53.5271 15.6059C30.9762 15.6059 12.6951 33.982 12.6951 56.6499C12.6951 79.3179 30.9762 97.6939 53.5271 97.6939Z" fill="#E1E4ED"/>
</g>
<path id="Vector_4" d="M69.3921 46.0229C69.105 45.9091 68.7965 45.8593 68.4881 45.8769C68.0711 45.9069 67.7331 46.0779 67.5331 46.3579C66.3561 48.0239 65.3921 51.1679 64.6141 53.6949C64.2571 54.8639 63.7781 56.4279 63.4311 57.1699C63.0691 55.0899 63.4781 47.4729 63.6371 44.5399L63.6391 44.4929C63.7491 42.4549 63.7641 42.0969 63.7391 41.9399C63.5651 40.8219 63.1211 40.0879 62.4201 39.7599C61.7121 39.4269 60.7911 39.5739 59.8001 40.1769C59.3031 40.4799 59.1651 41.5219 58.7391 46.2439L58.7371 46.2639C58.5021 48.8589 57.9611 54.8319 57.2961 55.8269C56.5461 54.4349 55.5121 46.5269 55.0661 43.1049C54.7541 40.7079 54.5721 39.3309 54.4501 38.9149C54.1931 38.0449 53.1071 37.3039 52.0321 37.2619C51.1371 37.2179 50.4031 37.6769 50.0521 38.4759C49.3971 39.2119 49.6291 41.6549 50.3541 47.4399C50.6981 50.1939 51.4101 55.8809 50.9621 56.5199C50.0691 56.4209 48.5351 52.8589 46.4031 45.9279C45.8051 43.9859 45.6201 43.4029 45.4361 43.1479C45.0741 42.2569 43.8431 41.5699 42.7401 41.6479C42.6472 41.6543 42.5547 41.6664 42.4631 41.6839C41.8851 41.7999 40.5671 42.3369 40.8481 44.8139C41.6271 48.2489 42.4721 50.7709 43.2931 53.2189L43.3091 53.2689C43.8001 54.7339 44.2641 56.1189 44.6961 57.6569C45.7121 61.2869 45.3171 63.5389 45.3121 63.5639C45.2781 63.7959 45.2071 63.9379 45.1011 63.9869C45.0559 64.0066 45.0074 64.0177 44.9581 64.0199C44.6361 64.0429 44.1531 63.8269 43.9031 63.6869C43.3351 62.5889 40.5031 57.3569 37.9361 56.6319L37.8451 56.6059L37.7521 56.6139C36.8101 56.7039 36.1181 57.0639 35.6951 57.6819C35.0251 58.6599 35.3021 59.9059 35.3701 60.1559L35.4081 60.2459C35.4281 60.2829 37.4871 64.0709 37.8051 65.8329C38.0801 67.3439 39.5011 68.9809 40.6431 70.2969L40.6901 70.3509C41.0631 70.7809 41.3851 71.1529 41.6381 71.4969C44.9541 74.9889 50.1961 77.9249 50.2391 77.9489C50.8931 78.4359 51.2571 78.9069 51.2951 79.3119C51.3133 79.465 51.2714 79.6192 51.1781 79.7419L51.0641 79.8619L51.7891 80.5729L65.6211 79.5929L66.2111 76.8629C68.0341 69.1579 67.6531 62.5879 67.6471 62.5439C67.6541 62.3019 68.1651 59.9639 68.5771 58.0759L68.5881 58.0279C69.4081 54.2649 70.4261 49.5839 70.6221 47.8029C70.7071 47.0419 70.2241 46.3429 69.3921 46.0239V46.0229Z" fill="#3B4262"/>
</g>
<g id="scissor">
<path id="Vector_5" d="M231.456 110.385C261.106 110.385 285.142 85.8434 285.142 55.5699C285.142 25.2965 261.106 0.754944 231.456 0.754944C201.806 0.754944 177.77 25.2965 177.77 55.5699C177.77 85.8434 201.806 110.385 231.456 110.385Z" fill="#BF6A1A"/>
<path id="Vector_6" d="M231.456 105.525C261.106 105.525 285.142 82.0714 285.142 53.1399C285.142 24.2085 261.106 0.754944 231.456 0.754944C201.806 0.754944 177.77 24.2085 177.77 53.1399C177.77 82.0714 201.806 105.525 231.456 105.525Z" fill="url(#paint1_linear_4_147)"/>
<g id="Group_2">
<g id="Vector_7" filter="url(#filter1_i_4_147)">
<path d="M231.457 95.2639C254.219 95.2639 272.671 76.8879 272.671 54.2199C272.671 31.552 254.219 13.1759 231.457 13.1759C208.695 13.1759 190.243 31.552 190.243 54.2199C190.243 76.8879 208.695 95.2639 231.457 95.2639Z" fill="#E1E4ED"/>
</g>
<path id="Vector_8" d="M220.698 53.8679L225.149 47.6339C223.299 47.3269 219.901 47.2589 217.118 50.0309C212.73 54.4009 210.953 63.8399 210.583 66.1239L221.733 77.2289C223.741 77.0589 232.629 75.8759 241.193 67.3479C241.283 67.1639 243.37 65.6279 241.664 63.9299C240.85 63.1199 239.502 63.1339 238.671 63.9629C238.574 64.0631 238.458 64.1431 238.33 64.1981C238.202 64.2532 238.065 64.2822 237.926 64.2836C237.786 64.285 237.648 64.2587 237.519 64.2062C237.39 64.1538 237.273 64.0761 237.174 63.9779C237.075 63.88 236.997 63.7634 236.945 63.6349C236.892 63.5064 236.866 63.3686 236.867 63.2298C236.868 63.0909 236.898 62.9537 236.953 62.8263C237.008 62.6989 237.088 62.5838 237.189 62.4879L240.215 59.4739C241.753 57.9419 240.304 55.3579 238.157 55.9789L235.68 58.0909C235.467 58.2748 235.191 58.3671 234.91 58.3478C234.63 58.3285 234.368 58.1992 234.183 57.9879C233.799 57.5449 233.881 56.8739 234.318 56.4959C242.972 48.9339 241.708 49.8459 247.276 44.6479C249.356 42.9229 246.74 39.8719 244.69 41.6179L231.221 53.6819C231.028 53.8458 230.782 53.9345 230.529 53.9318C230.276 53.929 230.032 53.835 229.843 53.6669C229.398 53.2839 229.388 52.7329 229.679 52.2969L239.074 37.7519C240.447 35.8999 237.744 33.8419 236.298 35.7099L222.407 55.0569C222.328 55.1707 222.226 55.2677 222.109 55.3422C221.992 55.4166 221.862 55.4672 221.725 55.4909C221.588 55.5146 221.448 55.511 221.313 55.4803C221.178 55.4496 221.05 55.3923 220.937 55.3119C220.825 55.2342 220.729 55.1347 220.656 55.0194C220.583 54.9041 220.534 54.7753 220.512 54.6407C220.489 54.506 220.494 54.3682 220.526 54.2355C220.558 54.1028 220.616 53.9778 220.697 53.8679H220.698Z" fill="#3B4262"/>
</g>
</g>
<g id="rock">
<path id="Vector_9" d="M136.555 259.815C166.205 259.815 190.241 235.273 190.241 205C190.241 174.727 166.205 150.185 136.555 150.185C106.905 150.185 82.8689 174.727 82.8689 205C82.8689 235.273 106.905 259.815 136.555 259.815Z" fill="#9F1633" fill-opacity="0.63"/>
<g id="Vector_10" filter="url(#filter2_d_4_147)">
<path d="M136.555 254.955C166.205 254.955 190.241 231.501 190.241 202.57C190.241 173.639 166.205 150.185 136.555 150.185C106.905 150.185 82.8689 173.639 82.8689 202.57C82.8689 231.501 106.905 254.955 136.555 254.955Z" fill="url(#paint2_linear_4_147)"/>
</g>
<g id="Group_3">
<g id="Vector_11" filter="url(#filter3_i_4_147)">
<path d="M136.556 244.694C159.318 244.694 177.77 226.318 177.77 203.65C177.77 180.982 159.318 162.606 136.556 162.606C113.794 162.606 95.3419 180.982 95.3419 203.65C95.3419 226.318 113.794 244.694 136.556 244.694Z" fill="#E1E4ED"/>
</g>
<path id="Vector_12" d="M152.521 197.756C152.046 191.759 145.313 192.371 145.313 192.371C142.471 187.361 138.032 190.99 138.032 190.99C134.622 186.079 130.345 190.63 130.345 190.63C122.972 189.834 123.258 195.864 123.258 195.864C123.085 197.781 124.298 203.711 124.298 203.711C123.204 200.293 120.831 203.13 120.831 203.13C117.914 207.632 120.11 210.097 120.11 210.097C124.057 214.723 132.467 220.277 132.467 220.277C135.513 222.022 134.224 223.577 134.224 223.577L152.644 220.533L153.068 217.039C155.868 208.567 152.521 197.755 152.521 197.755V197.756Z" fill="#3B4262"/>
</g>
</g>
</g>
<defs>
<filter id="filter0_i_4_147" x="12.6951" y="15.6059" width="81.664" height="86.088" filterUnits="userSpaceOnUse" color-interpolation-filters="sRGB">
<feFlood flood-opacity="0" result="BackgroundImageFix"/>
<feBlend mode="normal" in="SourceGraphic" in2="BackgroundImageFix" result="shape"/>
<feColorMatrix in="SourceAlpha" type="matrix" values="0 0 0 0 0 0 0 0 0 0 0 0 0 0 0 0 0 0 127 0" result="hardAlpha"/>
<feOffset dy="4"/>
<feGaussianBlur stdDeviation="2.5"/>
<feComposite in2="hardAlpha" operator="arithmetic" k2="-1" k3="1"/>
<feColorMatrix type="matrix" values="0 0 0 0 0 0 0 0 0 0 0 0 0 0 0 0 0 0 0.26 0"/>
<feBlend mode="normal" in2="shape" result="effect1_innerShadow_4_147"/>
</filter>
<filter id="filter1_i_4_147" x="190.243" y="13.1759" width="82.428" height="86.088" filterUnits="userSpaceOnUse" color-interpolation-filters="sRGB">
<feFlood flood-opacity="0" result="BackgroundImageFix"/>
<feBlend mode="normal" in="SourceGraphic" in2="BackgroundImageFix" result="shape"/>
<feColorMatrix in="SourceAlpha" type="matrix" values="0 0 0 0 0 0 0 0 0 0 0 0 0 0 0 0 0 0 127 0" result="hardAlpha"/>
<feOffset dy="4"/>
<feGaussianBlur stdDeviation="2.5"/>
<feComposite in2="hardAlpha" operator="arithmetic" k2="-1" k3="1"/>
<feColorMatrix type="matrix" values="0 0 0 0 0 0 0 0 0 0 0 0 0 0 0 0 0 0 0.26 0"/>
<feBlend mode="normal" in2="shape" result="effect1_innerShadow_4_147"/>
</filter>
<filter id="filter2_d_4_147" x="78.8689" y="149.185" width="115.372" height="112.77" filterUnits="userSpaceOnUse" color-interpolation-filters="sRGB">
<feFlood flood-opacity="0" result="BackgroundImageFix"/>
<feColorMatrix in="SourceAlpha" type="matrix" values="0 0 0 0 0 0 0 0 0 0 0 0 0 0 0 0 0 0 127 0" result="hardAlpha"/>
<feOffset dy="3"/>
<feGaussianBlur stdDeviation="2"/>
<feComposite in2="hardAlpha" operator="out"/>
<feColorMatrix type="matrix" values="0 0 0 0 0 0 0 0 0 0 0 0 0 0 0 0 0 0 0.25 0"/>
<feBlend mode="normal" in2="BackgroundImageFix" result="effect1_dropShadow_4_147"/>
<feBlend mode="normal" in="SourceGraphic" in2="effect1_dropShadow_4_147" result="shape"/>
</filter>
<filter id="filter3_i_4_147" x="95.3419" y="162.606" width="82.428" height="86.088" filterUnits="userSpaceOnUse" color-interpolation-filters="sRGB">
<feFlood flood-opacity="0" result="BackgroundImageFix"/>
<feBlend mode="normal" in="SourceGraphic" in2="BackgroundImageFix" result="shape"/>
<feColorMatrix in="SourceAlpha" type="matrix" values="0 0 0 0 0 0 0 0 0 0 0 0 0 0 0 0 0 0 127 0" result="hardAlpha"/>
<feOffset dy="5"/>
<feGaussianBlur stdDeviation="2"/>
<feComposite in2="hardAlpha" operator="arithmetic" k2="-1" k3="1"/>
<feColorMatrix type="matrix" values="0 0 0 0 0 0 0 0 0 0 0 0 0 0 0 0 0 0 0.26 0"/>
<feBlend mode="normal" in2="shape" result="effect1_innerShadow_4_147"/>
</filter>
<linearGradient id="paint0_linear_4_147" x1="53.5271" y1="3.18494" x2="53.5271" y2="107.955" gradientUnits="userSpaceOnUse">
<stop offset="0.5625" stop-color="#3F5EE7" stop-opacity="0.53"/>
<stop offset="1" stop-color="#5B73EF" stop-opacity="0.16"/>
</linearGradient>
<linearGradient id="paint1_linear_4_147" x1="231.456" y1="0.754944" x2="231.456" y2="105.525" gradientUnits="userSpaceOnUse">
<stop stop-color="#ECA925"/>
<stop offset="1" stop-color="#EDA015"/>
</linearGradient>
<linearGradient id="paint2_linear_4_147" x1="136.555" y1="150.185" x2="136.555" y2="254.955" gradientUnits="userSpaceOnUse">
<stop offset="0.0416667" stop-color="#D9445F"/>
<stop offset="1" stop-color="#DD2F4D"/>
</linearGradient>
</defs>
</svg>
